<?xml version="1.0" encoding="UTF-8" standalone="no"?>
<svg
   xmlns:dc="http://purl.org/dc/elements/1.1/"
   xmlns:cc="http://creativecommons.org/ns#"
   xmlns:rdf="http://www.w3.org/1999/02/22-rdf-syntax-ns#"
   xmlns:svg="http://www.w3.org/2000/svg"
   xmlns="http://www.w3.org/2000/svg"
   xmlns:sodipodi="http://sodipodi.sourceforge.net/DTD/sodipodi-0.dtd"
   xmlns:inkscape="http://www.inkscape.org/namespaces/inkscape"
   id="Layer_1"
   data-name="Layer 1"
   viewBox="0 0 512 512.00001"
   version="1.1"
   sodipodi:docname="play_pause.svg"
   inkscape:export-filename="/home/iiticublap178/workspace/event-driven/python/visualizer/graphics/play_pause.png"
   inkscape:export-xdpi="96"
   inkscape:export-ydpi="96"
   width="512"
   height="512"
   inkscape:version="0.92.4 (5da689c313, 2019-01-14)">
  <metadata
     id="metadata11">
    <rdf:RDF>
      <cc:Work
         rdf:about="">
        <dc:format>image/svg+xml</dc:format>
        <dc:type
           rdf:resource="http://purl.org/dc/dcmitype/StillImage" />
        <dc:title>play-glyph</dc:title>
      </cc:Work>
    </rdf:RDF>
  </metadata>
  <defs
     id="defs9" />
  <sodipodi:namedview
     pagecolor="#ffffff"
     bordercolor="#666666"
     borderopacity="1"
     objecttolerance="10"
     gridtolerance="10"
     guidetolerance="10"
     inkscape:pageopacity="0"
     inkscape:pageshadow="2"
     inkscape:window-width="1920"
     inkscape:window-height="1016"
     id="namedview7"
     showgrid="false"
     inkscape:zoom="1.2374126"
     inkscape:cx="374.8129"
     inkscape:cy="309.04242"
     inkscape:window-x="0"
     inkscape:window-y="27"
     inkscape:window-maximized="1"
     inkscape:current-layer="Layer_1"
     fit-margin-top="0"
     fit-margin-left="0"
     fit-margin-right="0"
     fit-margin-bottom="0" />
  <title
     id="title2">play-glyph</title>
  <path
     d="m 18.537534,298.88285 c -9.9396476,0 -17.72939614,-8.07524 -17.72939614,-18.38776 V 18.958821 C 0.81392436,8.6521206 8.5978864,0.5768794 18.543361,0.5768794 a 19.191795,19.191795 0 0 1 9.584244,2.633484 L 254.59544,133.99889 c 5.90202,3.40837 9.42696,9.32206 9.42696,15.73098 0,6.40892 -3.49579,12.35173 -9.42696,15.73098 L 28.127605,296.24938 a 19.180142,19.180142 0 0 1 -9.584244,2.63347 z"
     id="path4"
     style="opacity:0.95;fill:#00409a;fill-opacity:1;stroke-width:0.58262885"
     inkscape:connector-curvature="0" />
  <path
     inkscape:connector-curvature="0"
     style="opacity:0.95;fill:#00409a;fill-opacity:1;stroke-width:0.49349064"
     d="m 475.99902,512.08595 a 36.093907,36.093907 0 0 1 -36.09391,-36.0939 V 295.51264 a 36.096375,36.096375 0 1 1 72.19275,0 v 180.47941 a 36.093907,36.093907 0 0 1 -36.09884,36.0939 z"
     id="path4-3" />
  <path
     inkscape:connector-curvature="0"
     style="opacity:0.95;fill:#00409a;fill-opacity:1;stroke-width:0.49349064"
     d="m 338.80861,512.08595 a 36.093907,36.093907 0 0 1 -36.0939,-36.0939 V 295.51264 a 36.096375,36.096375 0 1 1 72.19275,0 v 180.47941 a 36.093907,36.093907 0 0 1 -36.09885,36.0939 z"
     id="path6" />
  <path
     inkscape:connector-curvature="0"
     style="opacity:0.95;fill:#00409a;fill-opacity:1;stroke-width:0.39419436"
     d="M 162.88294,489.56281 A 8.832766,94.109594 19.797688 0 1 206.62402,364.51056 L 356.053,32.329566 A 8.8333706,94.116034 19.797688 1 1 328.33721,149.57699 L 178.90825,481.75798 a 8.832766,94.109594 19.797688 0 1 -16.02531,7.80483 z"
     id="path6-3" />
</svg>
