<?xml version="1.0" encoding="UTF-8" standalone="no"?>
<svg
   xmlns:dc="http://purl.org/dc/elements/1.1/"
   xmlns:cc="http://creativecommons.org/ns#"
   xmlns:rdf="http://www.w3.org/1999/02/22-rdf-syntax-ns#"
   xmlns:svg="http://www.w3.org/2000/svg"
   xmlns="http://www.w3.org/2000/svg"
   xmlns:sodipodi="http://sodipodi.sourceforge.net/DTD/sodipodi-0.dtd"
   xmlns:inkscape="http://www.inkscape.org/namespaces/inkscape"
   id="Layer_1"
   data-name="Layer 1"
   viewBox="0 0 512 512"
   version="1.1"
   sodipodi:docname="slide.svg"
   inkscape:export-filename="/home/iiticublap178/workspace/event-driven/python/visualizer/graphics/slide_back.png"
   inkscape:export-xdpi="96"
   inkscape:export-ydpi="96"
   inkscape:version="0.92.4 (5da689c313, 2019-01-14)">
  <metadata
     id="metadata13">
    <rdf:RDF>
      <cc:Work
         rdf:about="">
        <dc:format>image/svg+xml</dc:format>
        <dc:type
           rdf:resource="http://purl.org/dc/dcmitype/StillImage" />
        <dc:title>rewind1-glyph</dc:title>
      </cc:Work>
    </rdf:RDF>
  </metadata>
  <defs
     id="defs11" />
  <sodipodi:namedview
     pagecolor="#ffffff"
     bordercolor="#666666"
     borderopacity="1"
     objecttolerance="10"
     gridtolerance="10"
     guidetolerance="10"
     inkscape:pageopacity="0"
     inkscape:pageshadow="2"
     inkscape:window-width="781"
     inkscape:window-height="480"
     id="namedview9"
     showgrid="false"
     inkscape:zoom="0.4609375"
     inkscape:cx="256"
     inkscape:cy="311.94945"
     inkscape:window-x="710"
     inkscape:window-y="403"
     inkscape:window-maximized="0"
     inkscape:current-layer="Layer_1" />
  <title
     id="title2">rewind1-glyph</title>
  <g
     id="g822"
     inkscape:export-filename="/home/iiticublap178/workspace/event-driven/python/visualizer/graphics/slide_for.png"
     inkscape:export-xdpi="96"
     inkscape:export-ydpi="96">
    <path
       style="fill:#00409a;fill-opacity:1"
       id="path4"
       d="m 488.67,452.31 c 13.09,0 23.33,-10.63 23.33,-24.2 V 83.89 C 512,70.32 501.75,59.7 488.66,59.7 a 25.26,25.26 0 0 0 -12.58,3.46 l -259.89,172.1 a 23.53,23.53 0 0 0 0,41.47 l 259.9,172.11 a 25.24,25.24 0 0 0 12.58,3.46 z"
       inkscape:connector-curvature="0" />
    <path
       style="fill:#00409a;fill-opacity:1"
       id="path6"
       d="m 284.88,452.31 c 13.09,0 23.33,-10.63 23.33,-24.2 V 83.89 c 0,-13.57 -10.25,-24.19 -23.34,-24.19 a 25.26,25.26 0 0 0 -12.58,3.46 L 12.41,235.26 a 23.53,23.53 0 0 0 0,41.47 L 272.3,448.85 a 25.24,25.24 0 0 0 12.58,3.46 z"
       inkscape:connector-curvature="0" />
  </g>
</svg>
