<?xml version="1.0" encoding="UTF-8" standalone="no"?>
<svg
   xmlns:dc="http://purl.org/dc/elements/1.1/"
   xmlns:cc="http://creativecommons.org/ns#"
   xmlns:rdf="http://www.w3.org/1999/02/22-rdf-syntax-ns#"
   xmlns:svg="http://www.w3.org/2000/svg"
   xmlns="http://www.w3.org/2000/svg"
   xmlns:sodipodi="http://sodipodi.sourceforge.net/DTD/sodipodi-0.dtd"
   xmlns:inkscape="http://www.inkscape.org/namespaces/inkscape"
   id="Layer_1"
   data-name="Layer 1"
   viewBox="0 0 512 512"
   version="1.1"
   sodipodi:docname="step.svg"
   inkscape:export-filename="/home/iiticublap178/workspace/event-driven/python/visualizer/graphics/step.png"
   inkscape:export-xdpi="96"
   inkscape:export-ydpi="96"
   inkscape:version="0.92.4 (5da689c313, 2019-01-14)">
  <metadata
     id="metadata13">
    <rdf:RDF>
      <cc:Work
         rdf:about="">
        <dc:format>image/svg+xml</dc:format>
        <dc:type
           rdf:resource="http://purl.org/dc/dcmitype/StillImage" />
      </cc:Work>
    </rdf:RDF>
  </metadata>
  <defs
     id="defs11" />
  <sodipodi:namedview
     pagecolor="#ffffff"
     bordercolor="#666666"
     borderopacity="1"
     objecttolerance="10"
     gridtolerance="10"
     guidetolerance="10"
     inkscape:pageopacity="0"
     inkscape:pageshadow="2"
     inkscape:window-width="1920"
     inkscape:window-height="1016"
     id="namedview9"
     showgrid="false"
     inkscape:zoom="1.5340576"
     inkscape:cx="256"
     inkscape:cy="205.45258"
     inkscape:window-x="0"
     inkscape:window-y="27"
     inkscape:window-maximized="1"
     inkscape:current-layer="Layer_1" />
  <title
     id="title2">forward-glyph</title>
  <g
     id="g892"
     transform="matrix(-1,0,0,1,512,0)"
     inkscape:export-xdpi="96"
     inkscape:export-ydpi="96">
    <path
       inkscape:connector-curvature="0"
       style="fill:#00409a;fill-opacity:1"
       id="path4"
       d="M 30.24,1.57 C 13.24,1.57 0,15.35 0,32.93 v 446.14 c 0,17.58 13.28,31.36 30.25,31.36 a 32.73,32.73 0 0 0 16.3,-4.49 L 383.39,282.88 c 10.07,-5.81 16.08,-15.86 16.08,-26.88 0,-11.02 -6,-21.07 -16.08,-26.87 L 46.55,6.06 A 32.72,32.72 0 0 0 30.25,1.57 Z" />
    <path
       inkscape:connector-curvature="0"
       style="fill:#00409a;fill-opacity:1"
       id="path6"
       d="m 450.06,12.49 a 61.94,61.94 0 0 0 -61.94,61.93 v 363.16 a 61.94,61.94 0 0 0 123.88,0 V 74.42 A 61.94,61.94 0 0 0 450.06,12.49 Z" />
  </g>
</svg>
